<svg id="Layer_2" data-name="Layer 2" xmlns="http://www.w3.org/2000/svg" viewBox="0 0 100.01 100"><defs><style>.cls-1{fill:#231f20;}</style></defs><title>balance</title><path class="cls-1" d="M93.33,42s0,0,0-.06L83.56,16.78h5.33a2.4,2.4,0,0,0,0-4.79H58.94a9.25,9.25,0,0,0-17.87,0H11.12a2.4,2.4,0,0,0,0,4.79H16.8L6.71,41.87l0,.09h-2a15.45,15.45,0,0,0,30.89,0h-2s0,0,0-.06L23.83,16.78H41.07a9.27,9.27,0,0,0,6.54,6.54v49a9.25,9.25,0,0,0-6.85,8.94h18.5A9.25,9.25,0,0,0,52.4,72.3v-49a9.27,9.27,0,0,0,6.54-6.54H76.53L66.44,41.87l0,.09h-2a15.45,15.45,0,0,0,30.89,0Zm-81.5,0L20.3,20.9,28.47,42Zm59.73,0L80,20.9,88.2,42Z"/></svg>