<svg id="Layer_2" data-name="Layer 2" xmlns="http://www.w3.org/2000/svg" viewBox="0 0 100.01 100"><defs><style>.cls-1{fill:#231f20;}</style></defs><title>health</title><path class="cls-1" d="M89,11.38A23.82,23.82,0,0,0,71.46,4a29.78,29.78,0,0,0-20.1,8.15C48.18,9.34,41.22,4,33.89,4,20.94,4,14.67,9.61,11.7,14.32c-4.86,7.7-4,17.5-1,23.81A2.39,2.39,0,1,0,15,36.07c-2.35-4.95-3.13-13.07.73-19.19,3.35-5.31,9.63-8.11,18.15-8.11,7.71,0,15.72,8.35,15.79,8.43a2.4,2.4,0,0,0,3.59-.11c.07-.09,7-8.27,18.19-8.27,11.67,0,19.81,9,19.81,21.93,0,8.88-7,20.28-20.21,33a185.19,185.19,0,0,1-19.3,16A193.09,193.09,0,0,1,28,56.77a2.39,2.39,0,1,0-3.62,3.12A191.75,191.75,0,0,0,50.22,84.58a2.41,2.41,0,0,0,2.8.08A184.34,184.34,0,0,0,74.33,67.21C88.75,53.39,96.06,41.13,96.06,30.75,96.06,23,93.62,16.27,89,11.38Z"/><path class="cls-1" d="M31.62,40.09l8.86,14.06a2.37,2.37,0,0,0,1.86,1.11h.16a2.39,2.39,0,0,0,1.83-.85l9.55-11.34H74.14a2.39,2.39,0,1,0,0-4.78H52.76a2.41,2.41,0,0,0-1.83.85l-8.15,9.68L34,34.91a2.4,2.4,0,0,0-3.78-.36l-8.9,9.59h-17a2.39,2.39,0,1,0,0,4.78h18a2.4,2.4,0,0,0,1.76-.76Z"/></svg>